# xmcd
#
# Track frame offsets:
#	150
#	12910
#	25618
#	39646
#	61789
#	77189
#	91247
#	103572
#	118275
#	129153
#	145375
#	160595
#	175268
#	195776
#	211746
#	228009
#	238279
#	257264
#	274989
#	289092
#
# Disc length: 4025 seconds
# Revision: 0
# Processed by: cddbd v1.5.2PL0 Copyright (c) Steve Scherf et al.
# Submitted via: dBpowerAMP V12.0
#
DISCID=020fb714
DTITLE=Dwight Yoakum - Hillbilly Deluxe
DYEAR=1987
DGENRE=
TTITLE0=Honky Tonk Man
TTITLE1=It Won't Hurt
TTITLE2=I'll Be Gone
TTITLE3=South Of Cincinnatti
TTITLE4=Bury Me
TTITLE5=Guitars , Cadillacs
TTITLE6=Twenty Years
TTITLE7=Ring Of Fire
TTITLE8=Mainer's Prayer
TTITLE9=Heartaches By The Numbers
TTITLE10=Little Ways
TTITLE11=Smoke Along The Track
TTITLE12=Johnson's Love
TTITLE13=Please, Please, Baby
TTITLE14=Readin',  Rightin', Rt. 23
TTITLE15=Always Late With Your Kisses
TTITLE16=1,000 Miles
TTITLE17=Throughout All Time
TTITLE18=Little Sister
TTITLE19=This Drinkin' Will Kill Me
EXTD=
EXTT0=
EXTT1=
EXTT2=
EXTT3=
EXTT4=
EXTT5=
EXTT6=
EXTT7=
EXTT8=
EXTT9=
EXTT10=
EXTT11=
EXTT12=
EXTT13=
EXTT14=
EXTT15=
EXTT16=
EXTT17=
EXTT18=
EXTT19=
PLAYORDER=
